<?xml version="1.0" encoding="utf-8"?>
<!-- Generator: Adobe Illustrator 26.2.1, SVG Export Plug-In . SVG Version: 6.00 Build 0)  -->
<svg version="1.1" id="Warstwa_1" xmlns="http://www.w3.org/2000/svg" xmlns:xlink="http://www.w3.org/1999/xlink" x="0px" y="0px"
	 viewBox="0 0 283.5 85" style="enable-background:new 0 0 283.5 85;" xml:space="preserve">
<style type="text/css">
	.st0{fill:#396E95;}
</style>
<g>
	<path d="M172.9,46.8c-19.2,0-38.4,0-57.6,0c-10.3,0-20.6-0.1-30.9,0c-4.7,0-9.3,0.3-14,0.8c-2.4,0.2-4.7,0.9-7,1.5
		c-2.6,0.8-3.7,2.9-3.9,5.4c-0.2,2.1,0.3,4.1,0.8,6.1c0.9,3.4,2.4,6.6,3.9,9.7c0.3,0.6,0.3,0.7-0.3,1.1c-1.4,0.8-1.4,0.8-2.3-0.6
		c-2.1-3.6-3.8-7.3-4.9-11.4C56.3,57.6,56,55.8,56,54c-0.1-3.5,1.7-6,4.8-7.5c2-1,4.1-1.4,6.2-1.8c8.8-1.5,17.6-1.5,26.5-1.3
		c21.8,0.4,43.5,0.2,65.3,0.3c23.5,0.1,46.9,0,70.4,0.1c13.6,0,27.1,0,40.7,0.1c1,0,1.9,0,2.9,0c0.5,0,0.8,0.2,0.7,0.7
		c0,0.5,0,1,0,1.5c0,0.6-0.2,0.7-0.8,0.7c-2.1,0-4.2,0-6.3,0C235.2,46.8,204,46.8,172.9,46.8C172.9,46.8,172.9,46.8,172.9,46.8z"/>
	<path d="M173.1,41.2c-28.7,0-57.4,0-86.1,0c-4.4,0-8.8-0.1-13.2-0.2c-3.3-0.1-6.5-0.5-9.7-1.4c-1.9-0.5-3.7-1.2-5.2-2.5
		c-1.7-1.3-2.6-3.1-2.9-5.2c-0.3-2.3,0.1-4.6,0.8-6.9c1.2-4,2.9-7.8,4.8-11.4c0.4-0.8,0.5-0.8,1.3-0.4c0.4,0.2,0.8,0.3,1.1,0.5
		c0.4,0.2,0.5,0.4,0.3,0.8c-1,2.4-2.1,4.7-3,7.1c-1,2.6-2,5.3-2.2,8.2c-0.3,3.4,0.9,4.8,3.7,5.9c2.6,1.1,5.3,1.5,8.1,1.8
		c4.9,0.6,9.8,0.5,14.7,0.5c21,0,42.1,0,63.1,0c25.9,0,51.7-0.1,77.6-0.1c15.4,0,30.9,0.2,46.3,0.2c0.8,0,0.8,0,0.8,0.8
		c0,0.4,0,0.8,0,1.2c0,0.5-0.2,0.7-0.7,0.7c-5.1,0-10.3,0-15.4,0c-21.5,0-43.1,0-64.6,0.1c-6.6,0-13.1,0-19.7,0
		C173.1,41.1,173.1,41.1,173.1,41.2z"/>
	<path class="st0" d="M255.9,13.4C255.9,13.4,255.9,13.4,255.9,13.4c1.4,0,1.4,0,1.8,1.3c0.7,2,1.4,4,2,6c0.5,1.6,1,3.2,1.5,4.8
		c0.1,0.2,0.3,0.3,0.4,0.4c0.1-0.2,0.4-0.3,0.4-0.5c0.6-1.7,1.2-3.4,1.7-5.1c0.4-1.3,0.8-2.6,1.2-3.8c0.3-0.9,0.6-1.8,1-2.7
		c0.1-0.2,0.3-0.3,0.5-0.3c0.7,0,1.3,0,2,0c0.4,0,0.6,0.1,0.6,0.5c0.3,1.8,0.5,3.6,0.8,5.4c0.2,1.3,0.4,2.6,0.6,3.8
		c0.4,2.5,0.9,5,1.3,7.5c0.1,0.4,0,0.6-0.5,0.6c-0.6,0-1.2,0-1.8,0c-0.4,0-0.6-0.2-0.7-0.6c-0.3-1.8-0.5-3.5-0.8-5.3
		c-0.2-1.6-0.5-3.2-0.8-4.8c0-0.2-0.3-0.4-0.4-0.6c-0.1,0.2-0.3,0.3-0.4,0.5c-0.4,1.2-0.9,2.5-1.3,3.7c-0.4,1.2-0.8,2.5-1.2,3.7
		c-0.3,0.9-0.6,1.9-0.9,2.8c-0.1,0.5-0.4,0.6-0.9,0.6c-0.4,0-0.9-0.1-1.3,0c-0.6,0.1-0.8-0.2-1-0.7c-0.8-2.4-1.5-4.8-2.3-7.2
		c-0.3-1-0.7-2-1-3c-0.1-0.1-0.2-0.3-0.3-0.3c-0.1,0-0.3,0.2-0.4,0.3c0,0.1,0,0.1-0.1,0.2c-0.2,1.2-0.3,2.4-0.5,3.6
		c-0.3,1.6-0.6,3.1-0.9,4.7c-0.1,0.6-0.2,1.1-0.2,1.7c0,0.5-0.3,0.8-0.8,0.8c-0.5,0-1.1,0-1.6,0c-0.4,0-0.6-0.2-0.5-0.6
		c0.1-0.9,0.2-1.7,0.4-2.6c0.2-0.9,0.4-1.8,0.5-2.7c0.2-1,0.3-2.1,0.5-3.2c0.2-1.2,0.4-2.4,0.6-3.7c0.3-1.6,0.5-3.1,0.8-4.7
		c0.1-0.4,0.3-0.6,0.7-0.6C255.3,13.4,255.6,13.4,255.9,13.4C255.9,13.4,255.9,13.4,255.9,13.4z"/>
	<path class="st0" d="M53.7,41.9c0,4.2-1.4,7-4.4,8.8c-2,1.3-4.2,1.6-6.5,1.3c-3.3-0.4-5.6-2.2-7-5.1c-1.1-2.2-1.4-4.6-0.8-7.1
		c0.8-2.8,2.5-4.9,5.2-6.1c2-0.9,4.1-1.1,6.2-0.7c2.9,0.6,5.1,2.2,6.4,5C53.4,39.5,53.7,41.2,53.7,41.9z M44.1,35.9
		c-3.3-0.4-6.2,3.4-6.2,6.5c0,3.9,2.9,6.5,5.9,6.6c3.9,0.1,6.8-2.9,6.9-6.3C50.9,39.2,47.7,35.6,44.1,35.9z"/>
	<path d="M12,43.6c3,0.3,5.9,0.4,8.9,0.8c3,0.4,5.8,1.3,8.4,2.9c2.9,1.9,4.2,4.5,3.9,8c-0.2,2.2-0.8,4.2-1.7,6.2
		c-1.4,3.2-2.9,6.4-4.4,9.6c-0.3,0.7-0.5,0.8-1.2,0.5c-0.5-0.2-1-0.5-1.5-0.6c-0.4-0.2-0.5-0.4-0.4-0.8c1.1-2.6,2.2-5.2,3.3-7.9
		c0.9-2.2,1.8-4.4,2-6.8c0.4-3.3-0.8-5-3.8-6.3c-3.1-1.3-6.4-1.8-9.8-2.1c-1.7-0.1-3.4-0.3-5-0.4c-0.5,0-0.7-0.2-0.6-0.7
		c0-0.6,0-1.1,0.1-1.7c0-0.4,0.2-0.6,0.6-0.6c0.4,0,0.9,0,1.3,0C11.9,43.7,12,43.6,12,43.6z"/>
	<path class="st0" d="M196.4,19.5c0,0.3-0.1,0.6-0.1,0.9c0,3.4,0,6.8,0,10.1c0,0.6-0.1,0.8-0.8,0.8c-0.5,0-0.9,0-1.4,0
		c-0.8,0-0.8,0-0.8-0.8c0-5.1,0-10.2,0-15.3c0-0.6-0.1-1.4,0.2-1.7c0.3-0.3,1.1-0.1,1.6-0.2c0.9-0.2,1.4,0.4,1.8,1.1
		c1.7,2.8,3.5,5.5,5.2,8.2c0.4,0.7,0.9,1.4,1.3,2c0.1,0.2,0.4,0.4,0.5,0.6c0.1,0,0.1,0,0.2,0c0-0.2,0.1-0.5,0.1-0.7
		c0-3.5,0-6.9,0-10.4c0-0.8,0-0.8,0.8-0.8c0.4,0,0.8,0,1.2,0c0.9,0,0.9,0.1,0.9,0.9c0,5.2,0,10.4,0,15.7c0,1.4,0.2,1.3-1.3,1.3
		c-1.7,0-1.7,0-2.6-1.5c-1.6-2.6-3.3-5.1-4.9-7.7c-0.4-0.7-0.8-1.4-1.3-2.1c-0.2-0.2-0.4-0.4-0.6-0.6
		C196.6,19.5,196.5,19.5,196.4,19.5z"/>
	<path class="st0" d="M89,25.5c0.1-0.4,0.2-0.7,0.2-1c0-3.4,0-6.9,0-10.3c0-0.6,0.2-0.8,0.8-0.8c0.5,0,1,0,1.5,0
		c0.5,0,0.7,0.2,0.7,0.7c0,2.2,0,4.4,0,6.5c0,3.3,0,6.7,0,10c0,0.6-0.2,0.7-0.7,0.7c-0.5,0-1.1,0-1.6,0c-0.5,0-0.7-0.2-1-0.5
		c-1.7-2.6-3.4-5.3-5-7.9c-0.6-1-1.2-1.9-1.8-2.9c-0.1-0.2-0.4-0.3-0.6-0.4c-0.1,0.2-0.2,0.5-0.2,0.7c0,3.4,0,6.9,0,10.3
		c0,0.8,0,0.8-0.8,0.8c-0.5,0-1,0-1.5,0c-0.5,0-0.7-0.2-0.7-0.7c0-4.4,0-8.8,0-13.2c0-1.1,0-2.3,0-3.4c0-0.4,0.2-0.6,0.6-0.6
		c0.6,0,1.2,0,1.7,0c0.5,0,0.7,0.2,1,0.5c1.7,2.6,3.3,5.3,5,7.9c0.7,1,1.3,2.1,2,3.1C88.5,25.1,88.7,25.2,89,25.5z"/>
	<path class="st0" d="M148.2,13c3.7,0,6.3,1.9,8,5c1,1.8,1.1,3.9,0.8,5.9c-0.4,3.2-2.1,5.5-4.9,6.9c-2.7,1.4-5.5,1.3-8.2-0.1
		c-2.1-1.1-3.5-2.8-4.3-5c-0.5-1.4-0.8-2.8-0.6-4.3c0.4-3.2,1.9-5.7,4.8-7.3C145.3,13.4,146.7,13,148.2,13z M154.4,22.5
		c-0.1-2.1-0.8-3.7-2.3-5.1c-1.7-1.5-3.6-1.8-5.6-1.2c-2.4,0.7-3.8,2.5-4.2,4.9c-0.5,2.8,0.3,5.1,2.7,6.8c1.7,1.1,3.5,1.4,5.3,0.7
		C152.9,27.5,154.2,25.3,154.4,22.5z"/>
	<path d="M12.4,41.4c-0.4,0-0.9,0-1.4,0c-0.5,0-0.7-0.2-0.7-0.7c0-0.7,0-1.4,0-2.1c0-0.2,0.3-0.5,0.5-0.6c0.1-0.1,0.3-0.1,0.5-0.1
		c1.9-0.1,3.7-0.2,5.6-0.4c3.2-0.4,6.3-0.9,9.3-2.2c1.3-0.6,2.5-1.3,2.9-2.7c0.2-0.7,0.3-1.4,0.3-2.2c0-1.8-0.3-3.6-1-5.2
		c-1.3-3.2-2.6-6.4-4-9.6c-0.1-0.2-0.1-0.3-0.2-0.5c-0.4-1.1-0.4-1.1,0.7-1.5c0.1,0,0.2,0,0.2-0.1c1.3-0.5,1.4-0.5,2,0.8
		c1.3,2.8,2.6,5.6,3.8,8.5c1,2.3,1.6,4.7,1.8,7.2c0.2,3.8-1.4,6.7-5,8.5c-3.3,1.7-6.8,2.2-10.4,2.5C15.5,41.2,14,41.3,12.4,41.4z"/>
	<path d="M59.9,73.3c-0.3,0.7-1.1,0.8-1.6,1.1c-0.1,0.1-0.5-0.1-0.6-0.3c-0.5-0.6-0.9-1.2-1.3-1.8c-2.2-2.8-4.2-5.8-6.7-8.3
		C48.3,63,47,62,45.3,61.6c-2.2-0.5-4,0.1-5.7,1.3c-1.9,1.3-3.3,3.1-4.6,5c-1.4,2-2.6,4.1-3.9,6.2c-0.3,0.4-0.5,0.5-0.9,0.2
		c-0.4-0.3-0.8-0.5-1.1-0.8c-0.7-0.5-0.8-0.6-0.3-1.4c0.8-1.3,1.5-2.6,2.3-3.8c2.1-3,4.4-5.9,7.2-8.2c1.2-1,2.5-1.9,4-2.4
		c1.6-0.5,3.1-0.4,4.6,0.2c2.5,1.1,4.4,2.9,6.2,4.9c2.5,2.8,4.6,5.9,6.3,9.2C59.5,72.5,59.7,72.9,59.9,73.3z"/>
	<path d="M44,27.7c-1.4-0.1-2.6-0.7-3.7-1.4c-2.5-1.7-4.6-3.9-6.5-6.2c-1.8-2.3-3.5-4.6-4.9-7.2c0-0.1-0.1-0.1-0.1-0.2
		c-0.4-0.8-0.4-0.8,0.4-1.3c1.3-0.8,1.3-0.8,2.2,0.4c1.8,2.6,3.7,5.1,5.9,7.5c1.3,1.4,2.7,2.8,4.4,3.9c1.7,1.2,3.4,1,5.1-0.1
		c2.1-1.3,3.7-3,5.2-4.9c1.7-2.3,3.3-4.7,4.9-7c0.5-0.8,0.5-0.7,1.3-0.3c0.4,0.2,0.7,0.4,1.1,0.6c0.4,0.2,0.5,0.5,0.2,0.9
		c-1.2,1.8-2.4,3.7-3.7,5.5c-1.9,2.7-4.1,5.2-6.7,7.3c-1.1,0.8-2.3,1.5-3.5,2.1C45.2,27.5,44.6,27.6,44,27.7z"/>
	<path d="M198.4,63.9c-0.3,0-0.5-0.1-0.8-0.1c-1,0-2,0-3,0c-0.6,0-0.7-0.2-0.7-0.7c0-0.5,0-1,0-1.5c0-0.4,0.1-0.5,0.5-0.5
		c2.3,0,4.6,0,6.8,0c0.4,0,0.5,0.2,0.5,0.6c0.1,3-1.9,6.4-4.8,7.4c-3.3,1.2-7.7,0.4-10-2.8c-2.4-3.4-2.2-8,0.6-11.1
		c2.1-2.3,4.8-3,7.8-2.5c1.8,0.3,3.3,1,4.7,2.2c0.6,0.6,0.6,0.6,0,1.2c-0.3,0.3-0.7,0.7-1,1c-0.3,0.4-0.6,0.4-0.9,0
		c-1.5-1.4-3.3-2-5.4-1.6c-2.1,0.3-3.9,2.1-4.4,4.2c-0.8,3.1,1.2,6.2,4.1,6.9c2.5,0.6,4.4,0,5.7-2.1
		C198.3,64.3,198.3,64.2,198.4,63.9z"/>
	<path d="M220.4,61c0,3.3-1.3,5.9-4.2,7.6c-3.5,2.1-8.5,1.2-10.9-2.7c-2.1-3.3-1.8-7.6,0.8-10.5c2-2.2,4.6-3.2,7.7-2.6
		c3.5,0.7,5.5,3,6.4,6.3C220.4,59.6,220.4,60.3,220.4,61z M217.6,61.2c-0.2-0.8-0.3-1.6-0.6-2.3c-1.1-2.7-3.9-4.1-6.9-3
		c-3.5,1.4-4.1,5.9-2.4,8.5c1.3,1.9,3.9,2.8,5.9,2.1C215.8,65.9,217.6,63.8,217.6,61.2z"/>
	<path class="st0" d="M233.3,31.3c-1.1,0-2,0-3,0c-0.1,0-0.3-0.2-0.4-0.4c-0.8-1.6-1.6-3.1-2.4-4.7c-0.4-0.7-0.7-1.5-1.2-2.2
		c-0.1-0.2-0.4-0.3-0.6-0.4c-0.1,0.2-0.2,0.5-0.2,0.7c0,2.1,0,4.3,0,6.4c0,0.5-0.1,0.7-0.6,0.7c-0.6,0-1.2,0-1.8,0
		c-0.4,0-0.6-0.1-0.6-0.6c0-0.7,0-1.4,0-2.1c0-4.9,0-9.7,0-14.6c0-0.5,0.1-0.7,0.7-0.7c2,0.1,4.1-0.1,6.1,0.3c1.4,0.3,2.8,1.6,3.1,3
		c0.1,0.7,0.3,1.4,0.3,2.1c0,1.9-0.8,3.3-2.6,4.1c-0.8,0.3-0.8,0.5-0.4,1.3c1,2,2,3.9,3,5.9C232.9,30.4,233.1,30.8,233.3,31.3z
		 M225.5,18.4C225.5,18.4,225.5,18.4,225.5,18.4c0,0.5,0,1.1,0,1.6c0,0.3,0.2,0.5,0.5,0.5c0.7,0,1.4,0,2.1-0.1
		c1-0.1,1.5-0.7,1.7-1.7c0.1-0.9-0.3-1.8-1.1-2.1c-0.9-0.2-1.9-0.2-2.8-0.3c-0.1,0-0.3,0.3-0.3,0.5
		C225.5,17.4,225.5,17.9,225.5,18.4z"/>
	<path class="st0" d="M136.5,31.3c-1,0-1.9,0-2.9,0c-0.2,0-0.4-0.4-0.6-0.6c-0.6-1.2-1.2-2.4-1.9-3.6c-0.5-1-1-2-1.5-2.9
		c-0.1-0.2-0.4-0.4-0.7-0.6c-0.1,0.3-0.4,0.6-0.4,0.8c0,2,0,4,0,6.1c0,0.9,0,0.9-0.9,0.8c-0.5,0-1,0-1.4,0c-0.4,0-0.6-0.2-0.6-0.6
		c0-0.5,0-1,0-1.5c0-4.9,0-9.9,0-14.8c0-1,0-1,1-1c1.2,0,2.3-0.1,3.5,0c1.1,0.1,2.2,0.3,3.2,0.6c1.2,0.4,1.9,1.5,2.2,2.7
		c0.1,0.5,0.3,1.1,0.3,1.7c0,2-0.8,3.5-2.6,4.4c-0.8,0.4-0.8,0.5-0.4,1.3c1.1,2.1,2.2,4.2,3.3,6.3C136.4,30.7,136.4,31,136.5,31.3z
		 M128.6,18.5C128.7,18.6,128.7,18.6,128.6,18.5c0,0.5,0,0.9,0,1.4c0,0.4,0.2,0.7,0.7,0.6c0.6,0,1.3,0,1.9,0
		c0.9-0.1,1.7-0.6,1.8-1.3c0.2-1.3-0.1-2-1.1-2.5c-0.9-0.5-1.9-0.3-2.8-0.2c-0.1,0-0.3,0.3-0.4,0.5C128.7,17.5,128.7,18,128.6,18.5z
		"/>
	<path d="M170.5,61c0-2.4,0-4.8,0-7.2c0-0.8,0.1-0.9,0.9-0.9c1.7,0,3.3,0.1,5,0.2c3,0.2,4.9,1.8,6,4.4c1.1,2.8,1,5.6-0.4,8.3
		c-1.1,2.1-3,3.2-5.3,3.3c-1.8,0.1-3.6,0-5.5,0.1c-0.5,0-0.7-0.3-0.7-0.7C170.5,66,170.5,63.5,170.5,61C170.5,61,170.5,61,170.5,61z
		 M173.4,61.1c0,1.5,0,3,0,4.5c0,0.5,0.2,0.8,0.8,0.8c1-0.1,1.9-0.2,2.9-0.3c0.8-0.1,1.5-0.5,2-1.2c1.3-1.7,1.4-3.7,0.8-5.7
		c-0.6-2.1-2.1-3.1-4.2-3.3c-0.5,0-0.9,0-1.4-0.1c-0.7,0-0.8,0.1-0.8,0.8C173.4,58.1,173.4,59.6,173.4,61.1z"/>
	<path class="st0" d="M175,18.5c-1-0.7-1.8-1.4-2.7-1.8c-3-1.5-6.7-0.7-8.5,2.6c-1.6,2.8-0.7,6.9,1.9,8.6c2.5,1.6,5.4,1.6,7.9-0.3
		c0.2-0.1,0.4-0.3,0.5-0.5c0.8-0.7,0.6-0.7,1.4,0.1c0.3,0.3,0.6,0.7,1,1c0.3,0.3,0.3,0.5,0,0.7c-1.4,1.2-2.8,2.2-4.6,2.6
		c-1.4,0.3-2.8,0.4-4.2,0.2c-3.2-0.5-5.5-2.3-6.8-5.3c-0.8-1.9-0.9-3.8-0.6-5.8c0.4-2.9,2-5.1,4.6-6.5c2.1-1.1,4.3-1.3,6.7-0.9
		c1.9,0.4,3.5,1.3,4.9,2.6c0.4,0.4,0.4,0.6,0,1C175.9,17.4,175.5,18,175,18.5z"/>
	<path class="st0" d="M121.1,20.5c0,2,0,3.9,0,5.9c0,1.4-0.5,2.7-1.5,3.7c-1.1,1.2-2.5,1.6-4,1.7c-2.1,0-3.9-0.6-5.1-2.5
		c-0.3-0.4-0.4-0.9-0.5-1.3c-0.7-2.7-0.3-5.5-0.3-8.2c-0.1-1.9,0-3.8,0-5.6c0-0.5,0.1-0.7,0.7-0.7c0.6,0,1.1,0,1.7,0
		c0.5,0,0.6,0.2,0.6,0.7c0,3.8,0,7.5,0,11.3c0,0.8-0.1,1.5,0.4,2.2c0.5,0.8,1.8,1.6,3.4,1.1c1-0.3,1.8-1.3,1.8-2.4
		c0-3.9,0-7.8,0-11.7c0-1.2,0-1.2,1.2-1.2c0.4,0,0.7,0,1.1,0c0.6-0.1,0.7,0.2,0.7,0.7c0,1.7,0,3.4,0,5
		C121.1,19.6,121.1,20.1,121.1,20.5C121.1,20.5,121.1,20.5,121.1,20.5z"/>
	<path d="M143.8,61c0-2.4,0-4.8,0-7.2c0-0.8,0.1-0.9,0.9-0.9c1.4,0,2.8,0.1,4.1,0.2c2.3,0.2,3.8,2,3.7,4.2c0,1-0.4,1.8-1.1,2.4
		c-0.4,0.4-0.3,0.6,0.1,0.8c2.4,1.3,2.6,4.1,1.8,5.8c-0.7,1.5-1.9,2.5-3.6,2.7c-1.8,0.1-3.6,0.1-5.4,0.1c-0.5,0-0.5-0.3-0.5-0.7
		c0-1.3,0-2.6,0-3.9C143.8,63.4,143.8,62.2,143.8,61z M146.7,64.2C146.7,64.2,146.7,64.2,146.7,64.2c0,0.6,0,1.1,0,1.7
		c0,0.4,0.2,0.6,0.5,0.5c0.7-0.1,1.4-0.1,2.1-0.2c1-0.2,1.4-0.8,1.4-1.6c0.1-0.9-0.4-1.8-1.2-2.1c-0.7-0.2-1.5-0.3-2.2-0.4
		c-0.4-0.1-0.6,0.2-0.6,0.6C146.7,63.2,146.7,63.7,146.7,64.2z M146.7,57.6C146.7,57.6,146.7,57.6,146.7,57.6c0,0.1,0,0.3,0,0.4
		c0,1.4,0.2,1.6,1.6,1.3c0.8-0.2,1.3-0.9,1.4-1.7c0-0.8-0.4-1.4-1.2-1.6c-0.4-0.1-0.7-0.1-1.1-0.1c-0.4,0-0.6,0.2-0.6,0.6
		C146.7,56.8,146.7,57.2,146.7,57.6z"/>
	<path class="st0" d="M239.5,20c0,1.7,0,3.4,0,5.1c0,0.7,0.1,1.5,0.3,2.2c0.2,0.7,0.7,1.2,1.4,1.4c1.4,0.5,2.7,0.3,3.6-1.1
		c0.3-0.4,0.4-0.9,0.4-1.3c0.1-1.1,0.1-2.1,0.1-3.2c0-3,0-6,0-9c0-0.5,0.1-0.7,0.7-0.7c0.5,0,1.1,0,1.6,0c0.5,0,0.6,0.2,0.6,0.6
		c0,1.1,0,2.2,0,3.3c0,2.5,0,5,0,7.5c0,0.9,0,1.9-0.2,2.8c-0.4,1.9-1.5,3.1-3.3,3.8c-1.1,0.4-2.3,0.5-3.4,0.3
		c-2.2-0.4-4.3-1.9-4.4-4.5c-0.2-4.3-0.2-8.7-0.2-13c0-0.5,0.2-0.7,0.7-0.7c0.5,0,1,0,1.5,0c0.6,0,0.7,0.2,0.7,0.7
		C239.5,16.1,239.5,18,239.5,20z"/>
	<path class="st0" d="M96.7,22.4c0-2.7,0-5.5,0-8.2c0-0.7,0-0.8,0.8-0.8c2.6,0,5.1,0,7.7,0c0.8,0,0.9,0.1,0.8,0.9c0,0.5,0,0.9,0,1.4
		c0,0.5-0.2,0.7-0.7,0.7c-1.6,0-3.2,0-4.9,0c-0.7,0-0.8,0.1-0.8,0.8c0,0.8,0,1.6,0,2.4c0,0.4,0.2,0.6,0.6,0.6c1.7,0,3.4,0,5,0
		c0.5,0,0.8,0.2,0.7,0.7c0,0.6,0,1.1,0,1.7c0,0.5-0.3,0.5-0.7,0.5c-1.6,0-3.2,0-4.8,0c-0.9,0-0.9,0-0.9,0.9c0,1.1,0,2.3,0,3.4
		c0,0.9,0.1,0.9,1,0.9c1.6,0,3.1,0,4.7,0c0.7,0,0.7,0.1,0.7,0.8c0,0.5,0,1,0,1.5c0,0.4-0.1,0.7-0.6,0.7c-2.8,0-5.5,0-8.3,0
		c-0.5,0-0.5-0.3-0.5-0.7C96.7,27.9,96.7,25.1,96.7,22.4C96.7,22.4,96.7,22.4,96.7,22.4z"/>
	<path class="st0" d="M180.4,22.4c0-2.8,0-5.6,0-8.4c0-0.4,0.1-0.6,0.6-0.6c2.7,0,5.4,0,8.1,0c0.4,0,0.6,0.1,0.6,0.5
		c0,0.6,0,1.3,0,1.9c0,0.4-0.2,0.5-0.6,0.5c-1.6,0-3.2,0-4.9,0c-0.6,0-0.8,0.2-0.8,0.8c0,0.8,0,1.5,0,2.3c0,0.5,0.2,0.8,0.8,0.8
		c1.6,0,3.2,0,4.8,0c0.5,0,0.7,0.2,0.7,0.7c0,0.6,0,1.1,0,1.7c0,0.4-0.1,0.6-0.6,0.6c-1.6,0-3.2,0-4.8,0c-0.8,0-0.9,0.1-0.9,0.9
		c0,1.2,0,2.4,0,3.6c0,0.5,0.2,0.7,0.8,0.7c1.6,0,3.2,0,4.9,0c0.5,0,0.7,0.2,0.7,0.7c0,0.6,0,1.2,0,1.8c0,0.4-0.1,0.5-0.5,0.5
		c-2.7,0-5.4,0-8.1,0c-0.6,0-0.5-0.3-0.5-0.7C180.4,27.9,180.4,25.1,180.4,22.4C180.4,22.4,180.4,22.4,180.4,22.4z"/>
	<path d="M260.7,66.5c-1.5,1.5-2.9,2.6-4.8,2.9c-2.5,0.5-4.9,0.3-7-1.2c-2-1.4-3.1-3.4-3.4-5.8c-0.3-2.9,0.3-5.5,2.5-7.5
		c2.1-1.9,4.6-2.7,7.5-2.2c1.9,0.4,3.5,1.2,4.8,2.6c0.3,0.3,0.4,0.6,0,0.9c-0.5,0.5-1.1,1-1.6,1.5c-0.5-0.4-1-0.8-1.4-1.2
		c-2.1-1.5-5-1.5-7,0.1c-1.2,0.9-1.8,2.2-2,3.7c-0.2,2.4,0.7,4.6,2.9,5.7c2.2,1.1,4.3,0.8,6.2-0.6c0.4-0.3,0.8-0.7,1.1-0.9
		C259.2,65.2,259.9,65.8,260.7,66.5z"/>
	<path d="M227.2,69.6c-2.3,0.1-3.8-1.1-4.8-3c-0.1-0.1,0-0.5,0.1-0.6c0.5-0.4,1.1-0.7,1.7-1.1c0.3-0.2,0.5,0,0.7,0.2
		c0.3,0.3,0.6,0.7,0.9,1c0.5,0.5,1.2,0.7,2,0.6c0.7-0.1,1.1-0.5,1.4-1.2c0.2-0.6,0-1.2-0.5-1.6c-0.8-0.8-1.6-1.4-2.4-2.2
		c-1-1-2.1-1.9-2.8-3.1c-1.4-2.2-0.2-5.1,2.4-5.8c2.2-0.7,4.2,0.4,5.6,2c0.2,0.2,0.2,0.5,0,0.7c-0.5,0.4-0.9,0.8-1.4,1.2
		c-0.3,0.2-0.5,0.2-0.8-0.1c-0.5-0.4-1-0.8-1.6-1.1c-0.6-0.3-1.4,0-1.7,0.5c-0.3,0.5-0.2,1,0.4,1.6c1.4,1.3,2.8,2.5,4.1,3.8
		c1.9,1.8,2.1,4.5,0.6,6.5C230.2,69,228.8,69.6,227.2,69.6z"/>
	<path d="M267.1,69.2c-1.3,0-2.7,0-4,0c-0.7,0-0.7-0.1-0.5-0.7c1.7-3.9,3.4-7.9,5.1-11.8c0.2-0.5,0.1-0.7-0.4-0.7
		c-1.3,0-2.5,0-3.8,0c-0.5,0-0.7-0.2-0.7-0.7c0-0.6,0-1.1,0-1.7c0-0.4,0.2-0.6,0.6-0.6c2.7,0,5.4,0,8.1,0c0.5,0,0.7,0.2,0.4,0.7
		c-1.7,4-3.4,8-5.1,11.9c-0.3,0.6-0.2,0.8,0.5,0.8c1.2,0,2.5,0,3.7,0c0.9,0,0.9,0,0.9,0.9c0,0.4,0,0.8,0,1.2c0,0.5-0.2,0.7-0.7,0.7
		C269.8,69.2,268.4,69.2,267.1,69.2C267.1,69.2,267.1,69.2,267.1,69.2z"/>
	<path d="M238.5,69.2c-1.4,0-2.7,0-4.1,0c-0.6,0-0.6-0.1-0.4-0.6c1.7-4,3.4-7.9,5.1-11.9c0.3-0.6,0.2-0.8-0.5-0.8
		c-1.2,0-2.5,0-3.7,0c-0.5,0-0.7-0.2-0.7-0.7c0-0.6,0-1.1,0-1.7c0-0.4,0.2-0.6,0.6-0.6c2.7,0,5.5,0,8.2,0c0.5,0,0.6,0.2,0.4,0.7
		c-0.7,1.7-1.5,3.5-2.2,5.2c-0.9,2.1-1.8,4.2-2.7,6.4c-0.5,1.1-0.4,1.2,0.9,1.2c1.1,0,2.2,0,3.3,0c0.5,0,0.7,0.2,0.7,0.7
		c0,0.5,0,1,0,1.4c0,0.5-0.2,0.7-0.7,0.7C241.3,69.2,239.9,69.2,238.5,69.2z"/>
	<path d="M161.7,58.7c0.2-0.2,0.4-0.4,0.5-0.5c0.7-1.5,1.5-2.9,2.2-4.4c0.3-0.6,0.6-0.9,1.3-0.8c0.5,0,0.9,0,1.4,0
		c0.6,0,0.8,0.2,0.5,0.7c-0.6,1.3-1.3,2.5-1.9,3.8c-0.7,1.5-1.5,2.9-2.2,4.4c-0.1,0.3-0.2,0.6-0.2,0.9c0,1.9,0,3.8,0,5.6
		c0,0.7-0.1,0.8-0.8,0.8c-0.5,0-1,0-1.4,0c-0.5,0-0.7-0.2-0.7-0.7c0-1.4-0.1-2.9,0-4.3c0.1-1.5-0.4-2.8-1.1-4.1
		c-1.1-2.1-2.2-4.3-3.3-6.5c-0.2-0.4-0.1-0.6,0.4-0.6c0.6,0,1.2,0,1.8,0c0.4,0,0.7,0.2,0.9,0.6c0.8,1.6,1.6,3.2,2.4,4.8
		C161.5,58.4,161.5,58.5,161.7,58.7z"/>
	<path class="st0" d="M216.2,24c0,2.2,0,4.4,0,6.6c0,0.5-0.2,0.8-0.7,0.7c-0.5,0-1.1,0-1.6,0c-0.6,0-0.7-0.2-0.7-0.7
		c0-3.7,0-7.4,0-11.1c0-0.8,0-1.5,0-2.3c0-0.5-0.3-0.8-0.8-0.8c-0.7,0-1.3,0-2,0c-0.3,0-0.5-0.1-0.5-0.4c0-0.7,0-1.4,0-2.1
		c0-0.3,0.1-0.5,0.5-0.5c2.8,0,5.6,0,8.4,0c0.3,0,0.5,0.1,0.5,0.5c0,0.7,0,1.4,0,2.1c0,0.3-0.2,0.4-0.5,0.4c-0.6,0-1.1,0-1.7,0
		c-1,0-1,0-1,1C216.2,19.6,216.2,21.8,216.2,24C216.2,24,216.2,24,216.2,24z"/>
</g>
</svg>
